<svg width="106" height="158" viewBox="0 0 106 158" fill="none" xmlns="http://www.w3.org/2000/svg">
<path d="M69.4946 43.4806V68.9199C61.5017 68.6331 47.364 69.7431 36.5935 79.4249C28.3775 86.8124 16.874 87.4816 10.708 87.2213V43.4806C10.708 39.6939 13.7883 36.6135 17.575 36.6135H62.6276C66.4143 36.6135 69.4946 39.6939 69.4946 43.4806Z" fill="#EEEEEE"/>
<path d="M69.4946 79.4408V140.5C69.4946 144.287 66.4143 147.368 62.6276 147.368H17.575C13.7883 147.368 10.708 144.287 10.708 140.5V97.7422C11.3825 97.7635 12.0995 97.7794 12.8536 97.7794C21.0643 97.7794 33.7468 96.0959 43.6092 87.2319C51.8252 79.8551 63.3233 79.1806 69.4946 79.4408Z" fill="#2FB6EB"/>
<path d="M58.8101 79.1772V140.237C58.8101 144.024 55.7298 147.104 51.9431 147.104H6.89052C3.10383 147.104 0.0234985 144.024 0.0234985 140.237V97.4786C0.697986 97.4998 1.41496 97.5158 2.16911 97.5158C10.3798 97.5158 23.0623 95.8322 32.9247 86.9683C41.1407 79.5914 52.6388 78.9169 58.8101 79.1772Z" fill="#8ADEFF"/>
<path d="M101.902 4.20626C106.905 9.20915 107.101 17.0693 102.38 23.3256C98.1152 28.9817 91.4872 34.2395 86.957 38.0103C84.2803 40.2409 81.4602 42.5033 79.9943 43.4805V140.501C79.9943 150.076 72.2032 157.867 62.6276 157.867H17.575C7.99944 157.867 0.208313 150.076 0.208313 140.501V43.4805C0.208313 33.9209 7.97289 26.1404 17.5326 26.1191V14.0421C17.5326 11.1423 19.88 8.7949 22.7797 8.7949H57.4229C60.3227 8.7949 62.6701 11.1423 62.6701 14.0421V26.1191C65.5699 26.1244 68.305 26.8467 70.7055 28.116C73.1751 16.1027 78.8578 7.58401 82.2302 4.20626C84.8591 1.57735 88.3537 0.132782 92.0661 0.132782C95.7837 0.132782 99.2783 1.57735 101.902 4.20626ZM93.9992 17.0056C94.2595 16.6657 96.4635 13.6119 94.4825 11.6309C93.8346 10.983 92.9795 10.6325 92.0661 10.6325C91.1579 10.6325 90.2975 10.983 89.6549 11.6309C87.7961 13.4898 83.3774 19.8044 81.2212 29.1888C85.693 25.7155 90.8021 21.249 93.9992 17.0056ZM69.4946 140.501V79.4408C63.3233 79.1806 51.8252 79.8551 43.6092 87.2319C33.7468 96.0959 21.0643 97.7794 12.8536 97.7794C12.0995 97.7794 11.3825 97.7635 10.708 97.7422V140.501C10.708 144.287 13.7883 147.368 17.575 147.368H62.6276C66.4143 147.368 69.4946 144.287 69.4946 140.501ZM69.4946 68.9199V43.4805C69.4946 39.6939 66.4143 36.6135 62.6276 36.6135H17.575C13.7883 36.6135 10.708 39.6939 10.708 43.4805V87.2213C16.874 87.4815 28.3775 86.8124 36.5935 79.4249C47.364 69.7431 61.5017 68.6331 69.4946 68.9199ZM52.1757 26.1138V19.2893H28.0269V26.1138H52.1757Z" fill="black"/>
<path d="M52.6638 14.3395H27.047C26.4947 14.3395 26.047 14.7872 26.047 15.3395V26.6168C26.047 27.1691 26.4947 27.6168 27.047 27.6168H52.6638C53.2161 27.6168 53.6638 27.1691 53.6638 26.6168V15.3395C53.6638 14.7872 53.2161 14.3395 52.6638 14.3395Z" fill="#E0310E"/>
<path d="M52.6639 14.3395H29.7025C29.1502 14.3395 28.7025 14.7872 28.7025 15.3395V23.9614C28.7025 24.5136 29.1502 24.9614 29.7025 24.9614H52.6639C53.2161 24.9614 53.6639 24.5136 53.6639 23.9614V15.3395C53.6639 14.7872 53.2161 14.3395 52.6639 14.3395Z" fill="#F57961"/>
</svg>
